<?xml version="1.0" standalone="no"?><!DOCTYPE svg PUBLIC "-//W3C//DTD SVG 1.1//EN" "http://www.w3.org/Graphics/SVG/1.1/DTD/svg11.dtd"><svg t="1747330857922" class="icon" viewBox="0 0 1024 1024" version="1.1" xmlns="http://www.w3.org/2000/svg" p-id="6354" xmlns:xlink="http://www.w3.org/1999/xlink" width="200" height="200"><path d="M497.31 653s52.15 38.5 90.49 15.19c82.27-50.4 80.29-67.89 120.61-45.24C849.2 701.81 843.33 754.07 839.82 767c-14.1 50.62-106.18 91.64-206.66 66.52a616.66 616.66 0 0 1-283.5-159.2A616.69 616.69 0 0 1 190.5 390.86c-25.07-100.52 15.9-192.49 66.58-206.64 12.89-3.62 65.21-9.38 144 131.18 22.57 40.53 5.24 38.6-45.08 120.76-23.58 38.39 15 90.49 15 90.49s26.33 41.29 55.67 70.74S497.36 653 497.36 653z" p-id="6355" data-spm-anchor-id="a313x.search_index.0.i5.66743a81dRZLzS" class="selected" fill="#ffffff"></path></svg>