<?xml version="1.0" standalone="no"?><!DOCTYPE svg PUBLIC "-//W3C//DTD SVG 1.1//EN" "http://www.w3.org/Graphics/SVG/1.1/DTD/svg11.dtd"><svg t="1747382258508" class="icon" viewBox="0 0 1024 1024" version="1.1" xmlns="http://www.w3.org/2000/svg" p-id="2404" xmlns:xlink="http://www.w3.org/1999/xlink" width="200" height="200"><path d="M512 832a64 64 0 1 1 0 128 64 64 0 0 1 0-128zM256 576a64 64 0 1 1 0 128 64 64 0 0 1 0-128z m256 0a64 64 0 1 1 0 128 64 64 0 0 1 0-128z m256 0a64 64 0 1 1 0 128 64 64 0 0 1 0-128zM256 320a64 64 0 1 1 0 128 64 64 0 0 1 0-128z m256 0a64 64 0 1 1 0 128 64 64 0 0 1 0-128z m256 0a64 64 0 1 1 0 128 64 64 0 0 1 0-128zM256 64a64 64 0 1 1 0 128 64 64 0 0 1 0-128z m256 0a64 64 0 1 1 0 128 64 64 0 0 1 0-128z m256 0a64 64 0 1 1 0 128 64 64 0 0 1 0-128z" p-id="2405" fill="#ffffff"></path></svg>