<?xml version="1.0" standalone="no"?><!DOCTYPE svg PUBLIC "-//W3C//DTD SVG 1.1//EN" "http://www.w3.org/Graphics/SVG/1.1/DTD/svg11.dtd"><svg t="1747325448185" class="icon" viewBox="0 0 1024 1024" version="1.1" xmlns="http://www.w3.org/2000/svg" p-id="3035" xmlns:xlink="http://www.w3.org/1999/xlink" width="200" height="200"><path d="M768 320c-105.87 0-192 86.13-192 192a191.24 191.24 0 0 0 49 128H399a191.24 191.24 0 0 0 49-128c0-105.87-86.13-192-192-192S64 406.13 64 512s86.13 192 192 192h512c105.87 0 192-86.13 192-192s-86.13-192-192-192zM128 512a128 128 0 1 1 128 128 128.14 128.14 0 0 1-128-128z m640 128a128 128 0 1 1 128-128 128.14 128.14 0 0 1-128 128z" fill="#5C5C66" p-id="3036"></path></svg>